# xmcd
#
# Track frame offsets: 
#        150
#        11531
#        22788
#        33334
#        44872
#        60970
#        71882
#        84830
#        98263
#        109618
#        122107
#        143256
#        155904
#
# Disc length: 2299 seconds
#
# Revision: 0
# Processed by: cddbd v1.5.2PL0 Copyright (c) Steve Scherf et al.
# Submitted via: ExactAudioCopy v0.99pb5
#
DISCID=9808f90d
DTITLE=The Insiders - Me and My Heart and My Shoes
DYEAR=2004
DGENRE=Country
TTITLE0=It Hurts Me More The Second Time Around
TTITLE1=Don't Start Counting On Me
TTITLE2=I Don't Care (Just As Long As You Love Me)
TTITLE3=Same Old Town
TTITLE4=I'll Take The Time
TTITLE5=Me and My Heart and My Shoes
TTITLE6=Miranda... You Ain't Right
TTITLE7=Another Story, Another Time, Another Place
TTITLE8=Shoes Of A Fool
TTITLE9=He'll Let you Live A Little
TTITLE10=Long Black Veil
TTITLE11=You Better Treat Your Man Right
TTITLE12=I Just Can't Take It Anymore
EXTD=
EXTT0=
EXTT1=
EXTT2=
EXTT3=
EXTT4=
EXTT5=
EXTT6=
EXTT7=
EXTT8=
EXTT9=
EXTT10=
EXTT11=
EXTT12=
PLAYORDER=
